<?xml version="1.0" encoding="UTF-8"?>
<svg width="177px" height="38px" viewBox="0 0 177 38" version="1.1" xmlns="http://www.w3.org/2000/svg" xmlns:xlink="http://www.w3.org/1999/xlink">
    <!-- Generator: Sketch 54.1 (76490) - https://sketchapp.com -->
    <title>logo</title>
    <desc>Created with Sketch.</desc>
    <g id="lander" stroke="none" stroke-width="1" fill="none" fill-rule="evenodd">
        <g id="bigger" transform="translate(-16.000000, -16.000000)">
            <g id="logo" transform="translate(16.000000, 16.000000)">
                <g>
                    <circle id="Oval" fill="#4742DE" cx="19" cy="19" r="19"></circle>
                    <g id="Idea" transform="translate(7.600000, 6.650000)" fill="#FFFFFF">
                        <path d="M11.0133913,2.92434783 C11.424003,2.92434783 11.7568696,2.59148127 11.7568696,2.18086957 L11.7568696,1.18956522 C11.7568696,0.778953512 11.424003,0.446086957 11.0133913,0.446086957 C10.6027796,0.446086957 10.269913,0.778953512 10.269913,1.18956522 L10.269913,2.18086957 C10.269913,2.59148127 10.6027796,2.92434783 11.0133913,2.92434783 Z" id="Shape"></path>
                        <path d="M21.669913,9.61565217 L20.6786087,9.61565217 C20.267997,9.61565217 19.9351304,9.94851873 19.9351304,10.3591304 C19.9351304,10.7697421 20.267997,11.1026087 20.6786087,11.1026087 L21.669913,11.1026087 C22.0805247,11.1026087 22.4133913,10.7697421 22.4133913,10.3591304 C22.4133913,9.94851873 22.0805247,9.61565217 21.669913,9.61565217 Z" id="Shape"></path>
                        <path d="M2.58730435,10.3591304 C2.58730435,9.94851873 2.25443779,9.61565217 1.84382609,9.61565217 L0.852521739,9.61565217 C0.441910034,9.61565217 0.109043478,9.94851873 0.109043478,10.3591304 C0.109043478,10.7697421 0.441910034,11.1026087 0.852521739,11.1026087 L1.84382609,11.1026087 C2.25443779,11.1026087 2.58730435,10.7697421 2.58730435,10.3591304 Z" id="Shape"></path>
                        <path d="M17.9178261,5.43234783 C18.1149423,5.4321743 18.3039219,5.35372994 18.4432174,5.21426087 L19.1470435,4.5153913 C19.4200079,4.2224512 19.4119536,3.76595558 19.1288251,3.48282709 C18.8456966,3.19969859 18.389201,3.19164426 18.0962609,3.4646087 L17.3924348,4.16347826 C17.1800773,4.37609998 17.1165962,4.69565215 17.231559,4.97329809 C17.3465218,5.25094404 17.6173204,5.43208351 17.9178261,5.43234783 Z" id="Shape"></path>
                        <path d="M4.63434783,4.16347826 L3.93052174,3.4646087 C3.63758163,3.19164426 3.18108601,3.19969859 2.89795752,3.48282709 C2.61482903,3.76595558 2.60677469,4.2224512 2.87973913,4.5153913 L3.58356522,5.21426087 C3.87650532,5.48722531 4.33300094,5.47917097 4.61612944,5.19604248 C4.89925793,4.91291399 4.90731226,4.45641837 4.63434783,4.16347826 L4.63434783,4.16347826 Z" id="Shape"></path>
                        <path d="M19.4394783,16.0591304 C19.1465382,15.786166 18.6900425,15.7942203 18.406914,16.0773488 C18.1237855,16.3604773 18.1157312,16.8169729 18.3886957,17.109913 L19.0925217,17.8087826 C19.3854618,18.081747 19.8419575,18.0736927 20.125086,17.7905642 C20.4082145,17.5074357 20.4162688,17.0509401 20.1433043,16.758 L19.4394783,16.0591304 Z" id="Shape"></path>
                        <path d="M2.58730435,16.0591304 L1.88347826,16.758 C1.61051383,17.0509401 1.61856816,17.5074357 1.90169665,17.7905642 C2.18482515,18.0736927 2.64132077,18.081747 2.93426087,17.8087826 L3.63808696,17.109913 C3.91105139,16.8169729 3.90299706,16.3604773 3.61986857,16.0773488 C3.33674007,15.7942203 2.88024445,15.786166 2.58730435,16.0591304 Z" id="Shape"></path>
                        <path d="M18.2003478,11.5982609 C18.2051114,8.19388099 15.7394793,5.28882208 12.3796026,4.74013823 C9.01972597,4.19145438 5.75801331,6.16121062 4.67950903,9.39024354 C3.60100475,12.6192765 5.02426721,16.153825 8.03947826,17.7344348 C7.8848836,17.9737658 7.80230361,18.2524732 7.80156522,18.5373913 L7.80156522,20.0243478 C7.80156522,21.6667946 9.13303144,22.9982609 10.7754783,22.9982609 L11.7667826,22.9982609 C13.4092294,22.9982609 14.7406957,21.6667946 14.7406957,20.0243478 L14.7406957,18.5373913 C14.7399573,18.2524732 14.6573773,17.9737658 14.5027826,17.7344348 C16.7774996,16.5326257 18.200615,14.1709408 18.2003478,11.5982609 Z M13.2438261,18.5373913 L13.2438261,19.0330435 L10.7655652,19.0330435 C10.3549535,19.0330435 10.022087,19.36591 10.022087,19.7765217 C10.022087,20.1871334 10.3549535,20.52 10.7655652,20.52 L13.1546087,20.52 C12.9450726,21.1126655 12.3854829,21.5095377 11.7568696,21.5113043 L10.7655652,21.5113043 C9.94434181,21.5113043 9.2786087,20.8455712 9.2786087,20.0243478 L9.2786087,18.5373913 L13.2438261,18.5373913 Z M11.2612174,17.0504348 L11.2612174,17.0504348 C8.25006489,17.0504348 5.80904348,14.6094134 5.80904348,11.5982609 C5.80904348,8.58710836 8.25006489,6.14608696 11.2612174,6.14608696 C14.2723699,6.14608696 16.7133913,8.58710836 16.7133913,11.5982609 C16.7133919,13.0451265 16.1382877,14.4326599 15.1147345,15.4552835 C14.0911813,16.477907 12.7031259,17.0517501 11.2562609,17.0504348 L11.2612174,17.0504348 Z" id="Shape"></path>
                        <path d="M11.2612174,7.38521739 C10.8506057,7.38521739 10.5177391,7.71808395 10.5177391,8.12869565 C10.5177391,8.53930736 10.8506057,8.87217391 11.2612174,8.87217391 C12.7656623,8.87490183 13.9845764,10.093816 13.9873043,11.5982609 C13.9873043,12.0088726 14.3201709,12.3417391 14.7307826,12.3417391 C15.1413943,12.3417391 15.4742609,12.0088726 15.4742609,11.5982609 C15.4715296,9.27259347 13.5868848,7.38794865 11.2612174,7.38521739 L11.2612174,7.38521739 Z" id="Shape"></path>
                    </g>
                </g>
                <path d="M61.9165,25 L60.0125,25 L59.8595,23.623 C59.5534985,24.087669 59.0973364,24.4758318 58.491,24.7875 C57.8846636,25.0991682 57.1565043,25.255 56.3065,25.255 C54.6291583,25.255 53.2068392,24.6826724 52.0395,23.538 C50.8721608,22.3933276 50.2885,20.8746761 50.2885,18.982 C50.2885,17.1006573 50.891994,15.5820058 52.099,14.426 C53.306006,13.2699942 54.7594915,12.692 56.4595,12.692 C57.9328407,12.692 59.1369953,13.0489964 60.072,13.763 C61.0070047,14.4770036 61.6388317,15.3553281 61.9675,16.398 L59.7235,17.197 C59.5421658,16.5736635 59.1766694,16.0325023 58.627,15.5735 C58.0773306,15.1144977 57.3548378,14.885 56.4595,14.885 C55.4394949,14.885 54.5526704,15.2363298 53.799,15.939 C53.0453296,16.6416702 52.6685,17.6559934 52.6685,18.982 C52.6685,20.2853398 53.0339963,21.299663 53.765,22.025 C54.4960037,22.750337 55.399828,23.113 56.4765,23.113 C57.4738383,23.113 58.2388307,22.8608359 58.7715,22.3565 C59.3041693,21.8521641 59.6158329,21.3223361 59.7065,20.767 L55.8985,20.767 L55.8985,18.727 L61.9165,18.727 L61.9165,25 Z M65.65225,22.569 C66.0715854,22.9883354 66.5759137,23.198 67.16525,23.198 C67.7545863,23.198 68.2560813,22.9883354 68.66975,22.569 C69.0834187,22.1496646 69.29025,21.5660037 69.29025,20.818 C69.29025,20.0699963 69.0834187,19.4863354 68.66975,19.067 C68.2560813,18.6476646 67.7545863,18.438 67.16525,18.438 C66.5759137,18.438 66.0744187,18.6476646 65.66075,19.067 C65.2470813,19.4863354 65.04025,20.0699963 65.04025,20.818 C65.04025,21.5660037 65.244248,22.1496646 65.65225,22.569 Z M64.02025,17.639 C64.8589209,16.8003291 65.9072437,16.381 67.16525,16.381 C68.4232563,16.381 69.4687458,16.8003291 70.30175,17.639 C71.1347542,18.4776709 71.55125,19.5373269 71.55125,20.818 C71.55125,22.0986731 71.1347542,23.1583291 70.30175,23.997 C69.4687458,24.8356709 68.4232563,25.255 67.16525,25.255 C65.9072437,25.255 64.8617542,24.8356709 64.02875,23.997 C63.1957458,23.1583291 62.77925,22.0986731 62.77925,20.818 C62.77925,19.5373269 63.1929125,18.4776709 64.02025,17.639 Z M74.879,22.569 C75.2983354,22.9883354 75.8026637,23.198 76.392,23.198 C76.9813363,23.198 77.4828313,22.9883354 77.8965,22.569 C78.3101687,22.1496646 78.517,21.5660037 78.517,20.818 C78.517,20.0699963 78.3101687,19.4863354 77.8965,19.067 C77.4828313,18.6476646 76.9813363,18.438 76.392,18.438 C75.8026637,18.438 75.3011687,18.6476646 74.8875,19.067 C74.4738313,19.4863354 74.267,20.0699963 74.267,20.818 C74.267,21.5660037 74.470998,22.1496646 74.879,22.569 Z M73.247,17.639 C74.0856709,16.8003291 75.1339937,16.381 76.392,16.381 C77.6500063,16.381 78.6954958,16.8003291 79.5285,17.639 C80.3615042,18.4776709 80.778,19.5373269 80.778,20.818 C80.778,22.0986731 80.3615042,23.1583291 79.5285,23.997 C78.6954958,24.8356709 77.6500063,25.255 76.392,25.255 C75.1339937,25.255 74.0885042,24.8356709 73.2555,23.997 C72.4224958,23.1583291 72.006,22.0986731 72.006,20.818 C72.006,19.5373269 72.4196625,18.4776709 73.247,17.639 Z M89.83475,12.692 L89.83475,23.487 C89.83475,24.0423361 89.8574164,24.5466644 89.90275,25 L87.74375,25 C87.6870831,24.7166652 87.65875,24.3936685 87.65875,24.031 C87.4660824,24.3823351 87.1629187,24.6656656 86.74925,24.881 C86.3355813,25.0963344 85.8567527,25.204 85.31275,25.204 C84.1227441,25.204 83.1452538,24.7875042 82.38025,23.9545 C81.6152462,23.1214958 81.23275,22.0703397 81.23275,20.801 C81.23275,19.5656605 81.6095796,18.5286709 82.36325,17.69 C83.1169204,16.8513291 84.0774108,16.432 85.24475,16.432 C86.4460893,16.432 87.2337481,16.7776632 87.60775,17.469 L87.60775,12.692 L89.83475,12.692 Z M83.51075,20.801 C83.51075,21.5376703 83.7034147,22.1184979 84.08875,22.5435 C84.4740853,22.9685021 84.9727469,23.181 85.58475,23.181 C86.1854197,23.181 86.6784147,22.9656688 87.06375,22.535 C87.4490853,22.1043312 87.64175,21.5206703 87.64175,20.784 C87.64175,20.058663 87.4490853,19.4891687 87.06375,19.0755 C86.6784147,18.6618313 86.1854197,18.455 85.58475,18.455 C84.9840803,18.455 84.488252,18.6646646 84.09725,19.084 C83.706248,19.5033354 83.51075,20.075663 83.51075,20.801 Z" id="Good" fill="#030212" fill-rule="nonzero"></path>
                <path d="M116.819875,25 L114.507875,25 L114.507875,16.551 L111.039875,25 L109.084875,25 L105.616875,16.619 L105.616875,25 L103.372875,25 L103.372875,12.947 L106.466875,12.947 L110.087875,21.651 L113.623875,12.947 L116.819875,12.947 L116.819875,25 Z M118.116125,22.722 C118.116125,22.0079964 118.348456,21.4356688 118.813125,21.005 C119.277794,20.5743312 119.878455,20.3023339 120.615125,20.189 L122.672125,19.883 C123.09146,19.826333 123.301125,19.6280017 123.301125,19.288 C123.301125,18.9706651 123.179293,18.710001 122.935625,18.506 C122.691957,18.301999 122.343461,18.2 121.890125,18.2 C121.414123,18.2 121.037293,18.330332 120.759625,18.591 C120.481957,18.851668 120.326125,19.1746647 120.292125,19.56 L118.286125,19.135 C118.365459,18.409663 118.722455,17.7693361 119.357125,17.214 C119.991795,16.6586639 120.830453,16.381 121.873125,16.381 C123.119798,16.381 124.037789,16.678497 124.627125,17.2735 C125.216461,17.868503 125.511125,18.630662 125.511125,19.56 L125.511125,23.674 C125.511125,24.1726692 125.545125,24.6146647 125.613125,25 L123.539125,25 C123.482458,24.7506654 123.454125,24.4163354 123.454125,23.997 C122.921456,24.8243375 122.099797,25.238 120.989125,25.238 C120.127787,25.238 119.433628,24.9886692 118.906625,24.49 C118.379622,23.9913308 118.116125,23.4020034 118.116125,22.722 Z M121.465125,23.555 C121.997794,23.555 122.436957,23.4048348 122.782625,23.1045 C123.128293,22.8041652 123.301125,22.3083368 123.301125,21.617 L123.301125,21.243 L121.414125,21.532 C120.722788,21.6340005 120.377125,21.9853303 120.377125,22.586 C120.377125,22.8580014 120.473457,23.0874991 120.666125,23.2745 C120.858793,23.4615009 121.125123,23.555 121.465125,23.555 Z M132.145375,16.602 L132.145375,18.88 C131.918707,18.8346664 131.692043,18.812 131.465375,18.812 C130.819372,18.812 130.298044,18.9961648 129.901375,19.3645 C129.504706,19.7328352 129.306375,20.3363291 129.306375,21.175 L129.306375,25 L127.045375,25 L127.045375,16.636 L129.238375,16.636 L129.238375,17.877 C129.646377,17.004329 130.439702,16.568 131.618375,16.568 C131.743042,16.568 131.918707,16.5793332 132.145375,16.602 Z M141.108625,16.636 L137.759625,20.155 L141.176625,25 L138.405625,25 L136.195625,21.804 L135.260625,22.79 L135.260625,25 L132.999625,25 L132.999625,12.692 L135.260625,12.692 L135.260625,19.747 L138.150625,16.636 L141.108625,16.636 Z M143.033875,19.866 L146.773875,19.866 C146.751208,19.401331 146.584043,19.0103349 146.272375,18.693 C145.960707,18.3756651 145.504545,18.217 144.903875,18.217 C144.359872,18.217 143.917877,18.3869983 143.577875,18.727 C143.237873,19.0670017 143.056542,19.4466646 143.033875,19.866 Z M146.994875,22.042 L148.881875,22.603 C148.655207,23.3736705 148.210378,24.0083308 147.547375,24.507 C146.884372,25.0056692 146.05988,25.255 145.073875,25.255 C143.872536,25.255 142.852546,24.8498374 142.013875,24.0395 C141.175204,23.2291626 140.755875,22.1440068 140.755875,20.784 C140.755875,19.4919935 141.163871,18.4351708 141.979875,17.6135 C142.795879,16.7918292 143.759203,16.381 144.869875,16.381 C146.161881,16.381 147.173371,16.7663295 147.904375,17.537 C148.635379,18.3076705 149.000875,19.3673266 149.000875,20.716 C149.000875,20.8066671 148.998042,20.9086661 148.992375,21.022 C148.986708,21.1353339 148.983875,21.2259997 148.983875,21.294 L148.966875,21.413 L142.982875,21.413 C143.005542,21.9570027 143.220873,22.4103315 143.628875,22.773 C144.036877,23.1356685 144.524206,23.317 145.090875,23.317 C146.054213,23.317 146.688873,22.8920042 146.994875,22.042 Z M152.830125,14.137 L152.830125,16.636 L154.513125,16.636 L154.513125,18.642 L152.830125,18.642 L152.830125,22.144 C152.830125,22.4953351 152.909458,22.7446659 153.068125,22.892 C153.226792,23.0393341 153.476123,23.113 153.816125,23.113 C154.122127,23.113 154.354458,23.0903336 154.513125,23.045 L154.513125,24.915 C154.184457,25.0510007 153.759461,25.119 153.238125,25.119 C152.422121,25.119 151.776127,24.8895023 151.300125,24.4305 C150.824123,23.9714977 150.586125,23.3396707 150.586125,22.535 L150.586125,18.642 L149.073125,18.642 L149.073125,16.636 L149.498125,16.636 C149.91746,16.636 150.237624,16.5141679 150.458625,16.2705 C150.679626,16.0268321 150.790125,15.7066686 150.790125,15.31 L150.790125,14.137 L152.830125,14.137 Z M157.951375,25 L155.690375,25 L155.690375,16.636 L157.951375,16.636 L157.951375,25 Z M155.418375,13.899 C155.418375,13.5136647 155.554374,13.1821681 155.826375,12.9045 C156.098376,12.6268319 156.42704,12.488 156.812375,12.488 C157.19771,12.488 157.526374,12.6239986 157.798375,12.896 C158.070376,13.1680014 158.206375,13.5023313 158.206375,13.899 C158.206375,14.2730019 158.070376,14.5959986 157.798375,14.868 C157.526374,15.1400014 157.19771,15.276 156.812375,15.276 C156.42704,15.276 156.098376,15.1400014 155.826375,14.868 C155.554374,14.5959986 155.418375,14.2730019 155.418375,13.899 Z M161.882625,20.189 L161.882625,25 L159.621625,25 L159.621625,16.636 L161.814625,16.636 L161.814625,17.673 C162.052626,17.264998 162.392623,16.9533344 162.834625,16.738 C163.276627,16.5226656 163.741289,16.415 164.228625,16.415 C165.21463,16.415 165.965456,16.7238302 166.481125,17.3415 C166.996794,17.9591698 167.254625,18.7553285 167.254625,19.73 L167.254625,25 L164.993625,25 L164.993625,20.121 C164.993625,19.6223308 164.866126,19.2200015 164.611125,18.914 C164.356124,18.6079985 163.967961,18.455 163.446625,18.455 C162.970623,18.455 162.59096,18.6193317 162.307625,18.948 C162.02429,19.2766683 161.882625,19.6903308 161.882625,20.189 Z M168.210875,25.459 L170.250875,24.915 C170.330209,25.379669 170.54554,25.7593319 170.896875,26.054 C171.24821,26.3486681 171.684539,26.496 172.205875,26.496 C173.690549,26.496 174.432875,25.7196744 174.432875,24.167 L174.432875,23.555 C174.240207,23.8610015 173.945544,24.115999 173.548875,24.32 C173.152206,24.524001 172.670545,24.626 172.103875,24.626 C170.993203,24.626 170.066712,24.2406705 169.324375,23.47 C168.582038,22.6993295 168.210875,21.7303392 168.210875,20.563 C168.210875,19.429661 168.579205,18.4663373 169.315875,17.673 C170.052545,16.8796627 170.981869,16.483 172.103875,16.483 C172.715878,16.483 173.225873,16.5934989 173.633875,16.8145 C174.041877,17.0355011 174.325208,17.3046651 174.483875,17.622 L174.483875,16.636 L176.659875,16.636 L176.659875,24.099 C176.659875,25.3570063 176.297212,26.4024958 175.571875,27.2355 C174.846538,28.0685042 173.747216,28.485 172.273875,28.485 C171.174536,28.485 170.253712,28.1903363 169.511375,27.601 C168.769038,27.0116637 168.335542,26.2976709 168.210875,25.459 Z M172.494875,22.688 C173.072878,22.688 173.54604,22.4953353 173.914375,22.11 C174.28271,21.7246647 174.466875,21.2090032 174.466875,20.563 C174.466875,19.9283302 174.277044,19.4183353 173.897375,19.033 C173.517706,18.6476647 173.050211,18.455 172.494875,18.455 C171.916872,18.455 171.438044,18.6476647 171.058375,19.033 C170.678706,19.4183353 170.488875,19.9283302 170.488875,20.563 C170.488875,21.2090032 170.675873,21.7246647 171.049875,22.11 C171.423877,22.4953353 171.905539,22.688 172.494875,22.688 Z" id="Marketing" fill="#030212" fill-rule="nonzero"></path>
                <rect id="Rectangle" fill="#030212" x="93" y="18" width="7" height="3"></rect>
            </g>
        </g>
    </g>
</svg>