<?xml version="1.0" encoding="UTF-8"?>
<svg width="197px" height="38px" viewBox="0 0 197 38" version="1.1" xmlns="http://www.w3.org/2000/svg" xmlns:xlink="http://www.w3.org/1999/xlink">
    <!-- Generator: Sketch 54.1 (76490) - https://sketchapp.com -->
    <title>Group 5</title>
    <desc>Created with Sketch.</desc>
    <g id="lander" stroke="none" stroke-width="1" fill="none" fill-rule="evenodd">
        <g id="1340" transform="translate(-16.000000, -16.000000)">
            <g id="Group-5" transform="translate(16.000000, 16.000000)">
                <g id="logo">
                    <circle id="Oval" fill="#4742DE" cx="19" cy="19" r="19"></circle>
                    <g id="Idea" transform="translate(7.600000, 6.650000)" fill="#FFFFFF">
                        <path d="M11.0133913,2.92434783 C11.424003,2.92434783 11.7568696,2.59148127 11.7568696,2.18086957 L11.7568696,1.18956522 C11.7568696,0.778953512 11.424003,0.446086957 11.0133913,0.446086957 C10.6027796,0.446086957 10.269913,0.778953512 10.269913,1.18956522 L10.269913,2.18086957 C10.269913,2.59148127 10.6027796,2.92434783 11.0133913,2.92434783 Z" id="Shape"></path>
                        <path d="M21.669913,9.61565217 L20.6786087,9.61565217 C20.267997,9.61565217 19.9351304,9.94851873 19.9351304,10.3591304 C19.9351304,10.7697421 20.267997,11.1026087 20.6786087,11.1026087 L21.669913,11.1026087 C22.0805247,11.1026087 22.4133913,10.7697421 22.4133913,10.3591304 C22.4133913,9.94851873 22.0805247,9.61565217 21.669913,9.61565217 Z" id="Shape"></path>
                        <path d="M2.58730435,10.3591304 C2.58730435,9.94851873 2.25443779,9.61565217 1.84382609,9.61565217 L0.852521739,9.61565217 C0.441910034,9.61565217 0.109043478,9.94851873 0.109043478,10.3591304 C0.109043478,10.7697421 0.441910034,11.1026087 0.852521739,11.1026087 L1.84382609,11.1026087 C2.25443779,11.1026087 2.58730435,10.7697421 2.58730435,10.3591304 Z" id="Shape"></path>
                        <path d="M17.9178261,5.43234783 C18.1149423,5.4321743 18.3039219,5.35372994 18.4432174,5.21426087 L19.1470435,4.5153913 C19.4200079,4.2224512 19.4119536,3.76595558 19.1288251,3.48282709 C18.8456966,3.19969859 18.389201,3.19164426 18.0962609,3.4646087 L17.3924348,4.16347826 C17.1800773,4.37609998 17.1165962,4.69565215 17.231559,4.97329809 C17.3465218,5.25094404 17.6173204,5.43208351 17.9178261,5.43234783 Z" id="Shape"></path>
                        <path d="M4.63434783,4.16347826 L3.93052174,3.4646087 C3.63758163,3.19164426 3.18108601,3.19969859 2.89795752,3.48282709 C2.61482903,3.76595558 2.60677469,4.2224512 2.87973913,4.5153913 L3.58356522,5.21426087 C3.87650532,5.48722531 4.33300094,5.47917097 4.61612944,5.19604248 C4.89925793,4.91291399 4.90731226,4.45641837 4.63434783,4.16347826 L4.63434783,4.16347826 Z" id="Shape"></path>
                        <path d="M19.4394783,16.0591304 C19.1465382,15.786166 18.6900425,15.7942203 18.406914,16.0773488 C18.1237855,16.3604773 18.1157312,16.8169729 18.3886957,17.109913 L19.0925217,17.8087826 C19.3854618,18.081747 19.8419575,18.0736927 20.125086,17.7905642 C20.4082145,17.5074357 20.4162688,17.0509401 20.1433043,16.758 L19.4394783,16.0591304 Z" id="Shape"></path>
                        <path d="M2.58730435,16.0591304 L1.88347826,16.758 C1.61051383,17.0509401 1.61856816,17.5074357 1.90169665,17.7905642 C2.18482515,18.0736927 2.64132077,18.081747 2.93426087,17.8087826 L3.63808696,17.109913 C3.91105139,16.8169729 3.90299706,16.3604773 3.61986857,16.0773488 C3.33674007,15.7942203 2.88024445,15.786166 2.58730435,16.0591304 Z" id="Shape"></path>
                        <path d="M18.2003478,11.5982609 C18.2051114,8.19388099 15.7394793,5.28882208 12.3796026,4.74013823 C9.01972597,4.19145438 5.75801331,6.16121062 4.67950903,9.39024354 C3.60100475,12.6192765 5.02426721,16.153825 8.03947826,17.7344348 C7.8848836,17.9737658 7.80230361,18.2524732 7.80156522,18.5373913 L7.80156522,20.0243478 C7.80156522,21.6667946 9.13303144,22.9982609 10.7754783,22.9982609 L11.7667826,22.9982609 C13.4092294,22.9982609 14.7406957,21.6667946 14.7406957,20.0243478 L14.7406957,18.5373913 C14.7399573,18.2524732 14.6573773,17.9737658 14.5027826,17.7344348 C16.7774996,16.5326257 18.200615,14.1709408 18.2003478,11.5982609 Z M13.2438261,18.5373913 L13.2438261,19.0330435 L10.7655652,19.0330435 C10.3549535,19.0330435 10.022087,19.36591 10.022087,19.7765217 C10.022087,20.1871334 10.3549535,20.52 10.7655652,20.52 L13.1546087,20.52 C12.9450726,21.1126655 12.3854829,21.5095377 11.7568696,21.5113043 L10.7655652,21.5113043 C9.94434181,21.5113043 9.2786087,20.8455712 9.2786087,20.0243478 L9.2786087,18.5373913 L13.2438261,18.5373913 Z M11.2612174,17.0504348 L11.2612174,17.0504348 C8.25006489,17.0504348 5.80904348,14.6094134 5.80904348,11.5982609 C5.80904348,8.58710836 8.25006489,6.14608696 11.2612174,6.14608696 C14.2723699,6.14608696 16.7133913,8.58710836 16.7133913,11.5982609 C16.7133919,13.0451265 16.1382877,14.4326599 15.1147345,15.4552835 C14.0911813,16.477907 12.7031259,17.0517501 11.2562609,17.0504348 L11.2612174,17.0504348 Z" id="Shape"></path>
                        <path d="M11.2612174,7.38521739 C10.8506057,7.38521739 10.5177391,7.71808395 10.5177391,8.12869565 C10.5177391,8.53930736 10.8506057,8.87217391 11.2612174,8.87217391 C12.7656623,8.87490183 13.9845764,10.093816 13.9873043,11.5982609 C13.9873043,12.0088726 14.3201709,12.3417391 14.7307826,12.3417391 C15.1413943,12.3417391 15.4742609,12.0088726 15.4742609,11.5982609 C15.4715296,9.27259347 13.5868848,7.38794865 11.2612174,7.38521739 L11.2612174,7.38521739 Z" id="Shape"></path>
                    </g>
                </g>
                <text id="Examples" font-family="CircularStd-Bold, Circular Std" font-size="17" font-weight="bold" letter-spacing="-0.800000012" fill="#000000">
                    <tspan x="127.5855" y="25">Example</tspan>
                    <tspan x="189.5775" y="25">s</tspan>
                </text>
                <text id="Marketing" font-family="CircularStd-Bold, Circular Std" font-size="17" font-weight="bold" letter-spacing="-0.800000012" fill="#000000">
                    <tspan x="46.849" y="25">Marketin</tspan>
                    <tspan x="112.002" y="25">g</tspan>
                </text>
            </g>
        </g>
    </g>
</svg>